# xmcd
#
# Track frame offsets:
#	150
#	16032
#	34003
#	51375
#	69448
#	83762
#	96307
#	109987
#	128154
#	140490
#	161157
#	179287
#	196527
#	208577
#	224514
#
# Disc length: 3236 seconds
#
# Revision: 0
# Processed by: cddbd v1.5.2PL0 Copyright (c) Steve Scherf et al.
# Submitted via: EasyCDDAExtractor 10.0.2.1
#
DISCID=d30ca20f
DTITLE=Various Artist - New Ground Music Gospel #1
DYEAR=2007
DGENRE=Gospel
TTITLE0=Joan Gregory -  Thank You Lord
TTITLE1=Chris Smith - Closer To The Throne
TTITLE2=Debbie Bennett - The Letter
TTITLE3=Jerry Allen - I Believe Jesus Died For Me
TTITLE4=Krista and Dobbie Poynor - It Was The King
TTITLE5=Porch Light Gospel - Hey There Crazy man
TTITLE6=Joe Shirley - Let The Wind Blow
TTITLE7=Kevin Ledoux - Time
TTITLE8=Brice Poynor - Jesus Knows All About The Blues
TTITLE9=Paul Southerland - Who You Are Where You Come From
TTITLE10=Harvey Byars - Mercy Met Me On My Knees
TTITLE11=Carolan Freeman - Feels Good To Touch The Old Rugged Cross
TTITLE12=Lori Simmons - Let's Sing An Ol" Timey Song
TTITLE13=Morgan and Morgan - There's A Cross Between Us
TTITLE14=Colleen Duncan - It Was Love For Me
EXTD=
EXTT0=
EXTT1=
EXTT2=
EXTT3=
EXTT4=
EXTT5=
EXTT6=
EXTT7=
EXTT8=
EXTT9=
EXTT10=
EXTT11=
EXTT12=
EXTT13=
EXTT14=
PLAYORDER=
